<?xml version="1.0" encoding="UTF-8"?>
<svg xmlns="http://www.w3.org/2000/svg" viewBox="0 0 200 200" width="200" height="200">
  <title>Sundae</title>
  <circle cx="100.0" cy="100.0" r="100.0" fill="#1E2FAA"/>
  <g transform="translate(-424.8644, 16.8251) scale(7.001656)">
    <path d="M81.8449 9.44436C81.444 7.62543 80.5436 6.13821 78.9434 5.1358C77.5947 4.29377 76.1038 4.02403 74.5401 4.18441C71.7151 4.48332 69.7102 5.93773 68.6094 8.55859C68.059 9.87449 67.8622 11.2268 67.9679 12.5828H70.2279C70.7965 12.5828 71.2631 12.1308 71.2813 11.5585V11.4237C71.2813 11.4237 71.2849 11.4237 71.2886 11.4237H71.9994C72.0067 11.4711 72.014 11.5148 72.0176 11.5585C72.0978 12.1272 72.3019 12.3568 72.8669 12.4953C73.2169 12.5828 73.5741 12.5792 73.9313 12.5828H82.0162C82.0162 11.5075 82.0636 10.4686 81.8413 9.44436H81.8449ZM71.3797 10.1552C71.5911 8.7044 72.5498 7.35934 74.2667 7.0094C75.0686 6.84537 75.8669 6.8636 76.6324 7.1625C77.8134 7.61814 78.4112 8.53672 78.5935 9.75784C78.6117 9.88178 78.619 10.0057 78.6336 10.1588H71.3834L71.3797 10.1552Z" fill="white"/>
    <path d="M79.0919 14.4455C78.7238 15.0396 78.2791 15.5682 77.6995 15.9618C76.6132 16.7054 75.4103 16.8622 74.1455 16.6034C73.1285 16.3956 72.3265 15.8561 71.7761 14.9704C71.6741 14.8063 71.5902 14.6423 71.5173 14.471L68.7871 16.0165C69.3448 17.0773 70.1577 17.9521 71.2439 18.6191C72.5671 19.432 74.0252 19.7346 75.5671 19.6689C77.5099 19.5851 79.2013 18.918 80.5864 17.5329C81.1113 17.008 81.5451 16.4102 81.8987 15.7395C81.002 15.2328 80.1235 14.7334 79.2268 14.2267C79.1758 14.3106 79.132 14.3798 79.0919 14.4455Z" fill="#FF4D5A"/>
  </g>
</svg>