<?xml version="1.0" encoding="UTF-8"?>
<svg xmlns="http://www.w3.org/2000/svg" viewBox="-10 -10 383.25 120" width="383" height="120">
  <title>Sundae</title>
  <circle cx="50" cy="50" r="50" fill="#1E2FAA"/>
  <g transform="translate(-212.4322, 8.4126) scale(3.500828)">
    <path d="M81.8449 9.44436C81.444 7.62543 80.5436 6.13821 78.9434 5.1358C77.5947 4.29377 76.1038 4.02403 74.5401 4.18441C71.7151 4.48332 69.7102 5.93773 68.6094 8.55859C68.059 9.87449 67.8622 11.2268 67.9679 12.5828H70.2279C70.7965 12.5828 71.2631 12.1308 71.2813 11.5585V11.4237C71.2813 11.4237 71.2849 11.4237 71.2886 11.4237H71.9994C72.0067 11.4711 72.014 11.5148 72.0176 11.5585C72.0978 12.1272 72.3019 12.3568 72.8669 12.4953C73.2169 12.5828 73.5741 12.5792 73.9313 12.5828H82.0162C82.0162 11.5075 82.0636 10.4686 81.8413 9.44436H81.8449ZM71.3797 10.1552C71.5911 8.7044 72.5498 7.35934 74.2667 7.0094C75.0686 6.84537 75.8669 6.8636 76.6324 7.1625C77.8134 7.61814 78.4112 8.53672 78.5935 9.75784C78.6117 9.88178 78.619 10.0057 78.6336 10.1588H71.3834L71.3797 10.1552Z" fill="white"/>
    <path d="M79.0919 14.4455C78.7238 15.0396 78.2791 15.5682 77.6995 15.9618C76.6132 16.7054 75.4103 16.8622 74.1455 16.6034C73.1285 16.3956 72.3265 15.8561 71.7761 14.9704C71.6741 14.8063 71.5902 14.6423 71.5173 14.471L68.7871 16.0165C69.3448 17.0773 70.1577 17.9521 71.2439 18.6191C72.5671 19.432 74.0252 19.7346 75.5671 19.6689C77.5099 19.5851 79.2013 18.918 80.5864 17.5329C81.1113 17.008 81.5451 16.4102 81.8987 15.7395C81.002 15.2328 80.1235 14.7334 79.2268 14.2267C79.1758 14.3106 79.132 14.3798 79.0919 14.4455Z" fill="#FF4D5A"/>
  </g>
  <g transform="translate(120, 22.499999999999996) scale(2.7500000000000004)">
    <path d="M94.867 0V12.9351H93.4548C92.8575 11.565 90.9324 9.60473 88.8526 8.76159C86.5902 7.83414 84.2505 7.75685 81.8968 8.30489C77.7162 9.28152 74.9409 11.9444 73.2968 15.8158C71.8213 19.2867 71.5965 22.9122 72.2218 26.6009C72.6855 29.3341 73.7043 31.8354 75.5733 33.9152C78.5734 37.2455 82.3605 38.3978 86.7167 37.7514C89.6536 37.3158 92.2041 35.7841 93.504 33.058H94.8951V37.372H101.38V0H94.867ZM93.3845 28.3926C92.1128 30.5848 90.1736 31.7722 87.6723 31.99C84.8407 32.2429 82.3675 31.4982 80.4915 29.2428C79.5009 28.0413 78.9669 26.622 78.735 25.1044C78.4469 23.2635 78.4891 21.4297 79.0301 19.624C80.1192 15.9915 83.042 13.8626 86.8572 13.9258C90.82 13.989 93.6796 16.4412 94.4174 20.3828C94.579 21.247 94.6562 22.1112 94.6703 22.9122C94.6492 24.8866 94.3541 26.7274 93.3845 28.3926Z" fill="white"/>
    <path d="M128.712 37.372C128.712 37.372 128.712 25.2309 128.712 19.4554C128.712 18.2961 128.628 17.1438 128.403 15.9985C127.672 12.4011 125.726 9.79444 122.149 8.71242C117.927 7.43366 113.732 7.69363 109.713 9.54853C106.882 10.8624 104.978 13.0475 104.219 16.139C104.036 16.8979 103.917 17.6637 103.931 18.4506H110.507C110.69 16.4833 111.688 15.0992 113.486 14.3755C115.643 13.5113 117.842 13.4972 120.021 14.3404C121.018 14.7268 121.826 15.3802 122.199 16.406C122.908 18.3593 122.438 19.8278 120.302 20.2985C118.412 20.7201 116.479 20.8184 114.561 21.0503C112.636 21.2751 110.725 21.5351 108.919 22.2799C107.015 23.0598 105.413 24.2121 104.465 26.1021C103.629 27.7673 103.481 29.5309 103.762 31.3366C104.156 33.8871 105.49 35.8052 107.83 36.9223C110.472 38.173 113.226 38.2503 115.995 37.4142C117.969 36.817 119.578 35.6787 120.597 33.88C120.843 33.4514 121.088 33.058 121.088 33.058H122.508V37.372H128.719H128.712ZM121.693 28.758C120.533 31.0836 118.622 32.3413 116.1 32.7348C114.997 32.9034 113.901 32.8753 112.84 32.4959C111.477 32.0041 110.697 30.9642 110.62 29.5309C110.542 28.0764 111.168 27.0225 112.481 26.3972C113.613 25.8492 114.835 25.6314 116.065 25.4346C116.929 25.2941 117.793 25.1957 118.643 24.9709C119.789 24.6688 120.681 24.0856 121.039 22.842H122.466C122.501 24.8304 122.627 26.8961 121.693 28.758Z" fill="white"/>
    <path d="M157.757 18.2047C156.985 14.6987 155.249 11.832 152.165 9.89984C149.565 8.27681 146.691 7.75687 143.677 8.06602C138.232 8.64216 134.367 11.4456 132.246 16.4974C131.185 19.0338 130.805 21.6405 131.009 24.2542H135.365C136.461 24.2542 137.361 23.383 137.396 22.2799V22.0199C137.396 22.0199 137.403 22.0199 137.41 22.0199H138.78C138.794 22.1113 138.808 22.1956 138.815 22.2799C138.97 23.376 139.363 23.8186 140.452 24.0856C141.127 24.2542 141.815 24.2472 142.504 24.2542H158.088C158.088 22.1815 158.179 20.1791 157.75 18.2047H157.757ZM137.585 19.5748C137.993 16.7784 139.841 14.1858 143.15 13.5113C144.696 13.1951 146.235 13.2302 147.71 13.8064C149.987 14.6846 151.139 16.4552 151.49 18.809C151.525 19.0479 151.539 19.2868 151.567 19.5819H137.592L137.585 19.5748Z" fill="white"/>
    <path d="M69.6425 37.365H63.1082V21.507C63.1082 20.3126 63.0028 19.1392 62.6305 17.994C61.71 15.1694 59.3984 14.0944 56.7777 14.4317C53.911 14.8041 52.021 16.6941 51.3395 19.7364C51.1568 20.5444 51.0865 21.3595 51.0795 22.1675C51.0725 22.2869 51.0795 37.372 51.0795 37.372H44.5522V33.065H43.1259C43.1259 33.065 42.6692 33.9292 41.7558 34.9902C40.1609 36.838 38.0952 37.7725 35.6922 37.8709C31.322 38.0536 28.1391 35.6928 26.7691 31.3296C26.2561 29.7065 25.9962 28.0413 25.9892 26.348C25.9681 20.5936 25.9821 8.63514 25.9821 8.63514H32.5164V24.4861C32.5164 25.6805 32.6218 26.8539 32.9942 27.9992C33.9146 30.8237 36.2262 31.8987 38.847 31.5614C41.7136 31.189 43.6037 29.299 44.2852 26.2567C44.4679 25.4487 44.5382 24.6336 44.5452 23.8256C44.5522 23.7062 44.5452 8.62109 44.5452 8.62109H51.0725V12.9281H52.4988C52.4988 12.9281 52.9555 12.0639 53.8689 11.0029C55.4638 9.15507 57.5295 8.2206 59.9324 8.12223C64.3027 7.93955 67.4855 10.3003 68.8556 14.6636C69.3685 16.2866 69.6285 17.9518 69.6355 19.6451C69.6566 25.3995 69.6425 37.358 69.6425 37.358V37.365Z" fill="white"/>
    <path d="M23.5094 17.2562H17.6567C17.488 15.0219 16.0407 14.0171 14.0804 13.5534C12.5065 13.181 10.9256 13.2091 9.38692 13.7431C8.79672 13.9469 8.26976 14.256 7.84819 14.7197C6.73104 15.9423 6.95587 17.7199 8.35407 18.5982C9.25342 19.1602 10.2582 19.4272 11.2769 19.6732C13.448 20.1931 15.6542 20.5584 17.7831 21.2189C19.3359 21.7037 20.7411 22.4625 21.8443 23.6781C23.1862 25.1606 23.6921 26.9522 23.6219 28.9055C23.4954 32.6012 21.5843 35.1025 18.3031 36.5991C15.3732 37.9341 12.2887 38.1308 9.141 37.6741C7.25097 37.4001 5.46633 36.8029 3.88545 35.6998C1.16634 33.8238 0.0351307 31.1328 0 27.9008C0 27.8586 0.0210784 27.8235 0.0491829 27.7321H5.78954C5.83169 27.7673 5.81764 27.8727 5.82467 27.971C5.98627 30.1491 7.20881 31.4981 9.21126 32.1445C11.284 32.8191 13.3637 32.7699 15.3732 31.8705C16.6238 31.3155 17.4248 30.374 17.467 28.9336C17.4951 27.9991 17.1016 27.2754 16.3077 26.7766C15.7175 26.4042 15.064 26.2004 14.3966 26.0388C12.099 25.4627 9.76633 24.9849 7.48986 24.3174C6.0495 23.8959 4.70751 23.2635 3.54117 22.3009C1.77059 20.8254 1.00474 18.8933 1.03987 16.6168C1.08905 13.2934 2.70506 10.9467 5.59983 9.45715C8.50162 7.96761 11.6072 7.68657 14.797 8.12219C16.5255 8.35405 18.1696 8.88804 19.6521 9.84359C22.3291 11.572 23.4813 14.0944 23.5165 17.2632L23.5094 17.2562Z" fill="white"/>
    <path d="M152.453 27.8446C151.743 28.9899 150.886 30.0087 149.769 30.7675C147.675 32.2008 145.356 32.5029 142.918 32.0041C140.958 31.6036 139.412 30.5637 138.351 28.8564C138.155 28.5402 137.993 28.224 137.852 27.8938L132.59 30.8729C133.665 32.9175 135.232 34.6037 137.325 35.8895C139.876 37.4564 142.686 38.0395 145.658 37.9131C149.403 37.7515 152.664 36.4657 155.333 33.7957C156.345 32.784 157.181 31.6317 157.863 30.3389C156.134 29.3622 154.441 28.3997 152.713 27.423C152.614 27.5846 152.53 27.7181 152.453 27.8446Z" fill="#FF5450"/>
  </g>
</svg>