<?xml version="1.0" encoding="UTF-8"?>
<svg xmlns="http://www.w3.org/2000/svg" viewBox="-10 -10 383.25 120" width="383" height="120">
  <title>Sundae</title>
  <circle cx="50" cy="50" r="50" fill="#1E2FAA"/>
  <g transform="translate(-212.4322, 8.4126) scale(3.500828)">
    <path d="M81.8449 9.44436C81.444 7.62543 80.5436 6.13821 78.9434 5.1358C77.5947 4.29377 76.1038 4.02403 74.5401 4.18441C71.7151 4.48332 69.7102 5.93773 68.6094 8.55859C68.059 9.87449 67.8622 11.2268 67.9679 12.5828H70.2279C70.7965 12.5828 71.2631 12.1308 71.2813 11.5585V11.4237C71.2813 11.4237 71.2849 11.4237 71.2886 11.4237H71.9994C72.0067 11.4711 72.014 11.5148 72.0176 11.5585C72.0978 12.1272 72.3019 12.3568 72.8669 12.4953C73.2169 12.5828 73.5741 12.5792 73.9313 12.5828H82.0162C82.0162 11.5075 82.0636 10.4686 81.8413 9.44436H81.8449ZM71.3797 10.1552C71.5911 8.7044 72.5498 7.35934 74.2667 7.0094C75.0686 6.84537 75.8669 6.8636 76.6324 7.1625C77.8134 7.61814 78.4112 8.53672 78.5935 9.75784C78.6117 9.88178 78.619 10.0057 78.6336 10.1588H71.3834L71.3797 10.1552Z" fill="white"/>
    <path d="M79.0919 14.4455C78.7238 15.0396 78.2791 15.5682 77.6995 15.9618C76.6132 16.7054 75.4103 16.8622 74.1455 16.6034C73.1285 16.3956 72.3265 15.8561 71.7761 14.9704C71.6741 14.8063 71.5902 14.6423 71.5173 14.471L68.7871 16.0165C69.3448 17.0773 70.1577 17.9521 71.2439 18.6191C72.5671 19.432 74.0252 19.7346 75.5671 19.6689C77.5099 19.5851 79.2013 18.918 80.5864 17.5329C81.1113 17.008 81.5451 16.4102 81.8987 15.7395C81.002 15.2328 80.1235 14.7334 79.2268 14.2267C79.1758 14.3106 79.132 14.3798 79.0919 14.4455Z" fill="#FF4D5A"/>
  </g>
  <g transform="translate(120, 22.499999999999996) scale(2.7500000000000004)">
    <path d="M49.2169 0V6.71071H48.4842C48.1744 5.99991 47.1756 4.98291 46.0967 4.5455C44.9229 4.06434 43.7091 4.02424 42.488 4.30856C40.3191 4.81524 38.8793 6.19675 38.0263 8.20522C37.2608 10.0059 37.1442 11.8868 37.4686 13.8005C37.7092 15.2185 38.2377 16.5162 39.2073 17.5951C40.7638 19.3229 42.7286 19.9207 44.9885 19.5854C46.5122 19.3594 47.8354 18.5647 48.5098 17.1504H49.2315V19.3885H52.596V0H49.2169ZM48.4478 14.73C47.788 15.8673 46.782 16.4833 45.4843 16.5963C44.0153 16.7276 42.7322 16.3412 41.7589 15.1711C41.245 14.5478 40.9679 13.8115 40.8477 13.0241C40.6982 12.0691 40.7201 11.1177 41.0008 10.1809C41.5658 8.29635 43.0821 7.19187 45.0614 7.22468C47.1173 7.25748 48.6009 8.52964 48.9836 10.5746C49.0675 11.0229 49.1076 11.4713 49.1148 11.8868C49.1039 12.9111 48.9508 13.8661 48.4478 14.73Z" fill="#121EA8"/>
    <path d="M66.7751 19.3886C66.7751 19.3886 66.7751 13.0898 66.7751 10.0934C66.7751 9.49199 66.7314 8.89419 66.6147 8.30003C66.2357 6.43371 65.2259 5.08136 63.3706 4.52001C61.1798 3.8566 59.0037 3.99147 56.9187 4.95378C55.4497 5.63543 54.4618 6.76907 54.0682 8.37293C53.9734 8.76661 53.9114 9.16393 53.9187 9.57218H57.3306C57.4253 8.55154 57.9429 7.83345 58.8761 7.458C59.9952 7.00965 61.1361 7.00236 62.2661 7.43977C62.7837 7.64026 63.2029 7.97926 63.3961 8.51145C63.7642 9.5248 63.52 10.2866 62.4119 10.5309C61.4314 10.7496 60.4289 10.8006 59.4338 10.9209C58.435 11.0375 57.4436 11.1724 56.5068 11.5588C55.5189 11.9634 54.6878 12.5612 54.1957 13.5417C53.762 14.4056 53.6854 15.3206 53.8312 16.2574C54.0353 17.5806 54.7279 18.5757 55.9418 19.1553C57.3123 19.8041 58.7412 19.8442 60.1774 19.4104C61.2017 19.1006 62.0364 18.5101 62.565 17.5769C62.6926 17.3546 62.8201 17.1504 62.8201 17.1504H63.5565V19.3886H66.7788H66.7751ZM63.1336 14.9196C62.5322 16.1262 61.5407 16.7786 60.2321 16.9828C59.6598 17.0703 59.0912 17.0557 58.5408 16.8588C57.8336 16.6037 57.429 16.0642 57.3889 15.3206C57.3488 14.566 57.6732 14.0193 58.3548 13.6948C58.9417 13.4105 59.576 13.2975 60.2139 13.1955C60.6622 13.1226 61.1106 13.0715 61.5516 12.9549C62.1458 12.7981 62.6087 12.4956 62.7946 11.8504H63.5346C63.5528 12.882 63.6184 13.9536 63.1336 14.9196Z" fill="#121EA8"/>
    <path d="M81.8449 9.44436C81.444 7.62543 80.5436 6.13821 78.9434 5.1358C77.5947 4.29377 76.1038 4.02403 74.5401 4.18441C71.7151 4.48332 69.7102 5.93773 68.6094 8.55859C68.059 9.87449 67.8622 11.2268 67.9679 12.5828H70.2279C70.7965 12.5828 71.2631 12.1308 71.2813 11.5585V11.4237C71.2813 11.4237 71.2849 11.4237 71.2886 11.4237H71.9994C72.0067 11.4711 72.014 11.5148 72.0176 11.5585C72.0978 12.1272 72.3019 12.3568 72.8669 12.4953C73.2169 12.5828 73.5741 12.5792 73.9313 12.5828H82.0162C82.0162 11.5075 82.0636 10.4686 81.8413 9.44436H81.8449ZM71.3797 10.1552C71.5911 8.7044 72.5498 7.35934 74.2667 7.0094C75.0686 6.84537 75.8669 6.8636 76.6324 7.1625C77.8134 7.61814 78.4112 8.53672 78.5935 9.75784C78.6117 9.88178 78.619 10.0057 78.6336 10.1588H71.3834L71.3797 10.1552Z" fill="#121EA8"/>
    <path d="M36.1309 19.3848H32.7409V11.1577C32.7409 10.538 32.6862 9.92926 32.493 9.3351C32.0155 7.86976 30.8162 7.31205 29.4566 7.48702C27.9694 7.68021 26.9888 8.66075 26.6352 10.2391C26.5405 10.6583 26.504 11.0811 26.5004 11.5003C26.4967 11.5623 26.5004 19.3884 26.5004 19.3884H23.114V17.1539H22.3741C22.3741 17.1539 22.1371 17.6023 21.6633 18.1527C20.8358 19.1114 19.7641 19.5962 18.5175 19.6472C16.2502 19.742 14.599 18.5172 13.8882 16.2536C13.6221 15.4116 13.4872 14.5477 13.4836 13.6692C13.4726 10.6838 13.4799 4.47977 13.4799 4.47977H16.8699V12.7032C16.8699 13.3229 16.9246 13.9316 17.1178 14.5258C17.5953 15.9911 18.7945 16.5488 20.1542 16.3739C21.6414 16.1807 22.6219 15.2001 22.9755 13.6218C23.0703 13.2026 23.1067 12.7798 23.1104 12.3606C23.114 12.2986 23.1104 4.47248 23.1104 4.47248H26.4967V6.70695H27.2367C27.2367 6.70695 27.4736 6.2586 27.9475 5.70818C28.7749 4.74951 29.8466 4.26471 31.0933 4.21368C33.3605 4.1189 35.0118 5.34367 35.7226 7.60731C35.9887 8.44933 36.1236 9.31323 36.1272 10.1917C36.1381 13.1771 36.1309 19.3811 36.1309 19.3811V19.3848Z" fill="#121EA8"/>
    <path d="M12.1967 8.95243H9.16025C9.07277 7.79327 8.32187 7.27202 7.30487 7.03144C6.48836 6.83825 5.6682 6.85283 4.86991 7.12986C4.56372 7.23557 4.29034 7.39595 4.07163 7.63653C3.49205 8.27079 3.60869 9.19301 4.33408 9.64865C4.80066 9.94026 5.32191 10.0788 5.85046 10.2064C6.97681 10.4761 8.12138 10.6656 9.22586 11.0083C10.0314 11.2598 10.7605 11.6535 11.3328 12.2841C12.029 13.0532 12.2914 13.9827 12.255 14.9961C12.1894 16.9134 11.1979 18.2111 9.4956 18.9875C7.97558 19.6801 6.37536 19.7822 4.74233 19.5452C3.76179 19.4031 2.83592 19.0932 2.01577 18.5209C0.605094 17.5477 0.0182257 16.1516 0 14.4748C0 14.453 0.0109354 14.4347 0.025516 14.3873H3.0036C3.02547 14.4056 3.01818 14.4602 3.02183 14.5113C3.10566 15.6413 3.73992 16.3411 4.77878 16.6765C5.8541 17.0264 6.93307 17.0009 7.97558 16.5343C8.62441 16.2464 9.03996 15.7579 9.06183 15.0107C9.07641 14.5259 8.87228 14.1504 8.46038 13.8916C8.15419 13.6984 7.81519 13.5927 7.4689 13.5089C6.27694 13.21 5.06675 12.9621 3.88572 12.6158C3.13847 12.3971 2.44225 12.069 1.83715 11.5696C0.918577 10.8042 0.521256 9.80175 0.539481 8.62072C0.564997 6.89657 1.40338 5.67909 2.90518 4.90632C4.41063 4.13355 6.02178 3.98774 7.67668 4.21374C8.57338 4.33403 9.42634 4.61106 10.1955 5.1068C11.5843 6.00351 12.1821 7.31211 12.2003 8.95607L12.1967 8.95243Z" fill="#121EA8"/>
    <path d="M79.0919 14.4455C78.7238 15.0396 78.2791 15.5682 77.6995 15.9618C76.6132 16.7054 75.4103 16.8622 74.1455 16.6034C73.1285 16.3956 72.3265 15.8561 71.7761 14.9704C71.6741 14.8063 71.5902 14.6423 71.5173 14.471L68.7871 16.0165C69.3448 17.0773 70.1577 17.9521 71.2439 18.6191C72.5671 19.432 74.0252 19.7346 75.5671 19.6689C77.5099 19.5851 79.2013 18.918 80.5864 17.5329C81.1113 17.008 81.5451 16.4102 81.8987 15.7395C81.002 15.2328 80.1235 14.7334 79.2268 14.2267C79.1758 14.3106 79.132 14.3798 79.0919 14.4455Z" fill="#FF5450"/>
  </g>
</svg>